Patient4_TMGait_0pt4_02_right_22_EMG.mot
version=1
nRows=26
nColumns=33
inDegrees=no
endheader
time	1LAddLong	2LGlutMax	3LGlutMed	4LIliopsoas	5LSemiMemb	6LBicFemLong	7LRecFem	8LVastMed	9LVastLat	10LGasMed	11LTibAnt	12lTibPost	13LPeroneusLong	14LSol	15LExtDigLong	16LFlexDigLong	17RAddLong	18RGlutMax	19RGlutMed	20RIliopsoas	21RSemiMemb	22RBicFemLong	23RRecFem	24RVastMed	25RVastLat	26RGasMed	27RTibAnt	28RTibPost	29RPeroneusLong	30RSol	31RExtDigLong	32RFlexDigLong
28.87	0.011444	0.11322	0.10117	0.00061	0.00885	0.005798	-0.08728	0.003357	0.1265	0.045624	0.029602	0.002594	0.05127	-0.28305	0.36438	-0.011139	-0.014191	-0.12039	0.26855	0.233	0.052032	0.000458	0.03891	-0.097961	-0.026703	-0.018311	0.094299	-0.012512	0.35934	-0.008392	0.001526	-0.010834
28.871	0.011139	0.1033	0.06424	-0.01236	-0.010071	-0.023956	-0.06897	-0.036469	0.11704	-0.005341	0.19592	0.011139	0.12009	-0.20599	-0.009766	0.005035	0.005035	-0.10162	0.2652	0.20218	0.043182	-0.00946	0.10269	-0.10223	-0.018311	-0.018005	-0.17685	-0.014496	0.1947	-0.038452	-0.001984	-0.010986
28.872	0.002594	0.14114	0.028229	-0.006256	-0.007782	-0.014343	-0.062866	-0.031738	0.11017	-0.043488	0.43167	0.005035	-0.14999	-0.062256	0.05188	0.011444	0.01297	-0.12543	0.21027	0.15106	0.041351	0.00885	0.081177	-0.019073	0.021057	0.001068	-0.54352	-0.014343	0.065308	-0.121	0.000305	-0.014496
28.873	-0.005035	0.15701	0.055237	0.005646	-0.024414	0.002441	0.058594	-0.029755	0.12787	-0.05127	0.41077	0.004578	0.01709	0.03067	-0.1886	0.011749	0.00824	-0.11261	0.53329	0.20721	0.033417	-0.003967	0.17166	0.075836	0.032043	-0.005951	-0.22781	-0.011749	-0.13214	-0.075531	-0.002289	-0.00885
28.874	-0.01236	0.14862	0.040588	0.012665	-0.081329	0.056763	0.11292	-0.011444	0.093842	-0.03891	0.14786	-0.001831	0.48813	0.19196	-0.035553	-0.006409	0.001221	-0.09552	0.25803	0.15396	0.025024	-0.007629	0.25055	0.11154	0.054169	-0.016937	0.31342	-0.012665	0.022278	-0.041046	-0.00473	-0.014954
28.875	-0.021667	0.13306	0.02655	0.011292	-0.10605	0.063782	0.085144	0.005188	0.034332	-0.007629	0.054932	-0.001678	-0.032196	0.17258	0.56458	-0.007324	0.00824	-0.083313	0.25681	0.003204	0.029297	-0.013733	0.056458	0.092773	0.059814	-0.016785	0.2034	-0.00885	-0.010681	-0.007019	0	-0.01236
28.876	-0.023346	0.1268	0.053711	0.007172	-0.071716	0.018768	-0.014801	0.015564	0.002899	-0.04364	0.051575	-0.000916	-0.72998	0.19196	0.31311	0.001221	0.076752	-0.11276	-0.046539	-0.008087	0.027618	-0.017853	0.10651	0.13321	0.063019	-0.019989	0.11108	-0.003815	-0.24826	0.070038	-0.001984	-0.007477
28.877	-0.011749	0.15823	0.073242	0.008698	-0.056763	-0.090179	-0.055389	0.006104	-0.071106	-0.112	-0.21362	-0.003204	-0.32959	0.2623	0.13596	0.002747	0.1471	-0.11551	-0.13306	0.007172	0.019226	-0.007019	0.38071	0.24506	0.056915	-0.012817	0.1416	-0.013733	-0.17914	0.052948	-0.002747	-0.004578
28.878	0.00351	0.21774	0.082397	-0.009766	0.012665	-0.13168	-0.049744	-0.002441	-0.25116	-0.11063	-0.36697	-0.014954	0.13977	0.1738	-0.72586	0.001526	0.11185	-0.087585	0.14542	0.005951	0.014343	0.005646	0.52673	0.37186	0.066986	-0.014648	0.18341	-0.005035	-0.095367	-0.010071	0.000305	-0.004883
28.879	0.025177	0.21347	0.1062	-0.007782	0.071106	-0.059967	-0.14648	-0.022888	-0.33752	-0.04303	-0.15686	-0.016327	0.41275	-0.040588	-0.94864	-0.016632	0.046539	-0.088501	0.43793	-0.018768	0.017548	-0.001221	0.46341	0.40482	0.10712	-0.011597	0.13306	-0.00885	0.16937	-0.045013	-0.00351	-0.003204
28.88	0.03067	0.23071	0.076599	0.00885	0.11658	-0.032349	-0.20889	-0.023041	-0.18433	-0.033264	0.12238	-0.000763	0.008087	0.11353	-0.51895	-0.003052	0.013123	-0.080109	0.37872	-0.078735	0.012054	0.031128	0.24139	0.31067	0.0914	-0.003357	0.093384	0.00351	0.1471	-0.077209	-0.000305	0.000458
28.881	0.018311	0.25833	-0.015411	0.006714	0.090485	-0.048218	-0.12192	-0.008698	-0.096436	-0.047302	0.11902	-0.006561	-0.038757	0.17761	-0.43488	-0.007935	-0.007629	-0.12711	-0.11276	-0.10071	0.028839	0.025635	0.17441	0.18707	0.0737	-0.005951	0.23117	-0.008545	-0.21683	0.030975	-0.003052	0.002136
28.882	0.020905	0.24811	-0.028992	-0.000916	0.052948	-0.088806	0.065002	-0.030975	0.005646	-0.045776	0.028076	-0.014191	-0.063019	-0.029602	-0.38345	0.004578	0.11948	-0.2121	-0.11581	-0.080414	0.017395	0.024261	0.18143	0.11719	0.049438	-0.012665	0.057678	-0.004272	-0.4364	0.14008	-0.001831	0.001068
28.883	0.024567	0.24231	0.076752	0.02243	0.038452	-0.13107	0.046844	-0.027771	0.07431	-0.012512	-0.11353	-0.010071	0.1326	-0.15884	-0.087128	0.007172	0.15854	-0.18753	0.53604	-0.022583	0.012512	-0.011292	0.17197	-0.005188	0.020294	-0.016479	-0.37781	-0.007477	0.12863	0.10773	-0.004272	-0.000305
28.884	0.024261	0.25436	0.054626	0.031281	0.038452	-0.088196	0.042877	-0.023041	0.009003	0.011292	-0.4007	-0.012512	0.22278	-0.16937	0.20096	-0.003204	0.1561	-0.15793	0.67795	0.066681	0.015259	-0.020905	0.18066	-0.013733	0.018311	-0.009155	-0.47531	-0.005035	0.34073	0.014801	-0.003815	0
28.885	0.015717	0.25559	0.002899	0.024567	0.031738	-0.027618	0.063629	-0.018005	-0.045013	0.006409	-0.22537	-0.006561	0.50171	-0.11566	0.23911	0.010681	0.20508	-0.16312	0.47791	0.14908	-0.010681	-0.063477	0.14618	-0.062103	0.008392	-0.020294	-0.31586	-0.005646	0.29098	-0.024567	-0.000916	-0.001373
28.886	0.015717	0.31754	0.031738	0.02182	0.045013	0.041656	0.078278	-0.016022	-0.058289	0.040131	-0.11704	-0.005341	1.6397	0.036469	0.30838	0.021667	0.18219	-0.17364	0.16892	0.08667	-0.032043	-0.093079	0.14969	-0.029449	-0.005493	-0.024872	-0.19577	-0.005341	0.0177	-0.07431	-0.002136	-0.000458
28.887	0.010071	0.30441	0.034332	0.014191	0.001373	0.058136	0.043335	-0.011597	-0.056915	0.071259	0.06958	-0.007019	1.1426	0.001373	0.13184	0.015717	0.12741	-0.13748	-0.32654	-0.005951	-0.03006	-0.093384	0.12528	0.02655	-0.016937	-0.025024	-0.59067	-0.010376	-0.14603	-0.060577	0.007324	-0.004272
28.888	-0.007477	0.30716	-0.076599	0.013428	-0.052795	0.06073	0.035858	-0.002594	-0.020447	0.11932	0.029297	0.000153	-0.54886	-0.11032	0.16296	0.018616	0.052795	-0.11917	-0.17273	-0.059662	-0.027008	-0.064087	0.075989	-0.019684	-0.029297	-0.026855	-0.53177	-0.010681	-0.50613	0.016785	-0.000153	-0.002747
28.889	-0.016022	0.31998	-0.029755	-0.001373	-0.06897	0.053558	0.057983	-0.002899	0.008392	0.07309	0.026703	-0.006409	0.24963	-0.17258	0.010834	0.027161	-0.062714	-0.069733	-0.12802	-0.016327	-0.023346	-0.050354	-0.029602	-0.066833	-0.011749	-0.016022	-0.33066	-0.011292	-0.44174	0.008545	-0.00061	-0.003662
28.89	-0.001068	0.39627	-0.20065	0.000153	-0.033264	-0.061646	0.079346	0.003357	0.000763	0.020447	0.10773	-0.008392	-0.16266	0.10742	0.2533	0.010529	-0.13825	-0.026398	-0.17303	-0.003357	-0.032196	-0.04776	-0.19608	-0.018158	-0.004272	0.006409	-0.13123	-0.004578	-0.091095	-0.2182	-0.000458	0.00351
28.891	0.007324	0.39444	-0.056	0.009308	-0.000153	-0.15289	0.04425	-0.010834	0.005188	-0.003662	0.066833	0.00061	-1.3814	0.29587	0.23697	0.018005	-0.17639	0.029907	-0.33524	0.026703	-0.005951	-0.023346	-0.121	0.002899	0	0.00351	0.54916	-0.010376	-0.064392	-0.12436	-0.001526	-0.002899
28.892	0.020599	0.37186	0.31265	0.016632	-0.012207	-0.16205	0.063324	-0.009766	0.001221	-0.039673	-0.031281	0.000763	-0.64301	0.26077	0.11383	-0.006714	-0.15182	-0.074615	-0.29236	0.13123	0.041046	-0.014038	0.19318	-0.051575	0.000305	-0.024872	0.72418	-0.014801	-0.28915	-0.075073	-0.001526	-0.013885
28.893	0.018768	0.42023	0.10727	0.041656	-0.009613	-0.15945	0.031128	-0.006256	-0.013885	-0.016174	-0.037079	-0.00351	0.22217	-0.086365	-0.021362	-0.0177	-0.1384	-0.081329	-0.2121	0.14526	0.064545	-0.027008	0.39627	-0.056152	-0.015717	-0.035553	0.38773	-0.00351	0.20462	-0.16937	0.000153	-0.019226
28.894	0.029602	0.45013	-0.032959	0.018158	-0.025024	-0.077209	-0.042725	0.001526	-0.002441	-0.02243	-0.053253	-0.005493	-0.11353	-0.30609	-0.082855	-0.012512	-0.14069	-0.029755	0.23529	0.028534	0.032501	-0.035858	0.57846	-0.11856	-0.021973	-0.033264	0.25803	-0.015869	0.30273	-0.13504	-0.007477	-0.016327
28.895	0.10956	0.41779	-0.037842	0.011444	0.069122	-0.011749	0.005951	-0.011597	-0.003662	-0.017395	-0.035858	0.002747	-0.26749	-0.28503	0.10468	-0.006256	-0.13672	-0.002136	0.31921	0.097961	0.029755	-0.019836	0.49744	-0.19409	-0.028839	-0.036163	-0.046844	-0.014191	-0.11429	0.064545	-0.003204	-0.000458
